<?xml version="1.0" encoding="utf-8"?>
<svg width="200px" height="85px" viewBox="0 0 200 85" version="1.1" xmlns:xlink="http://www.w3.org/1999/xlink" xmlns="http://www.w3.org/2000/svg">
  <desc>Created with Lunacy</desc>
  <g id="A-mile">
    <path d="M131.488 22.66Q132.608 23.812 134.4 23.812Q136.192 23.812 137.312 22.66Q138.432 21.508 138.432 19.716Q138.432 17.924 137.312 16.772Q136.192 15.62 134.4 15.62Q132.608 15.62 131.488 16.772Q130.368 17.924 130.368 19.716Q130.368 21.508 131.488 22.66ZM149.504 16.516L155.136 16.516L155.136 64.772L149.504 64.772L149.504 16.516ZM34.24 52.996L12.8 52.996L8.256 64.772L2.624 64.772L19.776 20.228L27.584 20.228L44.736 64.772L38.784 64.772L34.24 52.996ZM32.384 48.196L23.552 25.156L14.656 48.196L32.384 48.196ZM108.736 30.596Q113.472 30.596 115.904 33.508Q118.336 36.42 118.336 41.604L118.336 64.772L112.704 64.772L112.704 42.372Q112.704 39.172 111.36 37.412Q110.016 35.652 107.264 35.652Q104.448 35.652 102.528 36.676Q100.608 37.7 98.112 40.004Q98.176 40.516 98.176 41.604L98.176 64.772L92.544 64.772L92.544 42.372Q92.544 39.172 91.2 37.412Q89.856 35.652 87.104 35.652Q84.288 35.652 82.368 36.644Q80.448 37.636 78.016 39.94L78.016 64.772L72.384 64.772L72.384 38.788L70.976 31.364L76.608 31.364L77.504 35.972Q80.384 33.092 82.72 31.844Q85.056 30.596 88.576 30.596Q91.904 30.596 94.112 32.068Q96.32 33.54 97.344 36.292Q100.416 33.22 102.784 31.908Q105.152 30.596 108.736 30.596ZM171.648 49.924L195.328 49.924L195.328 48.068Q195.328 43.076 193.632 39.108Q191.936 35.14 188.64 32.868Q185.344 30.596 180.736 30.596Q176.192 30.596 172.8 32.836Q169.408 35.076 167.584 39.012Q165.76 42.948 165.76 47.876Q165.76 53.06 167.776 57.06Q169.792 61.06 173.568 63.3Q177.344 65.54 182.464 65.54Q185.6 65.54 188.352 64.612Q191.104 63.684 193.92 61.636L193.92 56.004L193.664 56.004Q190.848 58.308 188.128 59.492Q185.408 60.676 182.528 60.676Q177.728 60.676 174.944 57.764Q172.16 54.852 171.648 49.924ZM137.216 64.772L137.216 31.364L131.584 31.364L131.584 64.772L137.216 64.772ZM174.464 38.148Q176.832 35.268 180.8 35.268Q184.768 35.268 186.912 38.084Q189.056 40.9 189.504 45.572L171.648 45.572Q172.096 41.028 174.464 38.148Z" />
  </g>
</svg>